first trial
nRows=16
nColumns=38

# SIMM Motion File Header:
name Sujet_03_velo_60.mvnx
datacolumns 38
datarows 16
otherdata 1
range 7.7330 7.9830
endheader
time pelvis_tilt  pelvis_list  pelvis_rotation  pelvis_tx  pelvis_ty  pelvis_tz  hip_flexion_r  hip_adduction_r  hip_rotation_r  knee_angle_r  ankle_angle_r  subtalar_angle_r  mtp_angle_r  hip_flexion_l  hip_adduction_l  hip_rotation_l  knee_angle_l  ankle_angle_l  subtalar_angle_l  mtp_angle_l  lumbar_extension  lumbar_bending  lumbar_rotation  arm_flex_r  arm_add_r  arm_rot_r  elbow_flex_r  pro_sup_r  wrist_flex_r  wrist_dev_r  arm_flex_l  arm_add_l  arm_rot_l  elbow_flex_l  pro_sup_l  wrist_flex_l  wrist_dev_l
7.7330	-17.3434	-0.4719	-87.9577	0.0000	1.2500	-0.0000	72.2227	3.1850	-4.2185	69.8096	0.5038	-0.9907	-0.0000	60.8682	-7.4560	-0.5105	87.3070	1.9366	2.1116	0.0000	-14.9903	-0.4092	0.3413	74.4202	4.4644	15.2987	-1.4937	61.5369	-29.1449	-14.4063	76.9058	-0.8269	20.5141	-0.1025	68.1499	-25.8359	-15.9319	
7.7500	-17.3738	-0.3498	-87.7489	0.0000	1.2500	-0.0000	69.7535	3.1138	-4.6989	66.1857	-0.6192	-0.1953	0.0000	62.7656	-7.7441	-0.3342	90.4194	2.4340	2.2380	0.0000	-14.9497	-0.4389	0.2813	74.3304	4.3857	15.3218	-1.5546	61.4613	-29.1058	-14.3937	76.9300	-0.7617	20.5252	-0.1188	68.1793	-25.8854	-15.9327	
7.7660	-17.4113	-0.2584	-87.5116	0.0000	1.2500	-0.0000	67.2791	2.9973	-4.8265	62.6486	-1.9902	0.5874	-0.0000	64.7645	-7.9892	-0.1818	93.3713	2.8739	2.3651	0.0000	-14.9050	-0.4531	0.2180	74.2127	4.2902	15.3525	-1.5743	61.3694	-29.0745	-14.3950	76.9109	-0.6791	20.6046	-0.1296	68.1644	-25.9381	-15.9293	
7.7830	-17.4538	-0.1847	-87.2415	0.0000	1.2500	-0.0000	64.7976	2.8355	-4.7113	59.2244	-3.5221	1.3436	0.0000	66.8516	-8.1843	-0.0524	96.1575	3.2598	2.4583	0.0000	-14.8564	-0.4542	0.1478	74.0648	4.1846	15.3896	-1.5689	61.2665	-29.0464	-14.4083	76.8609	-0.5775	20.7153	-0.1331	68.1303	-25.9936	-15.9239	
7.8000	-17.4903	-0.1040	-86.9186	0.0000	1.2500	-0.0000	62.4224	2.6407	-4.3956	56.1366	-5.0089	1.9838	-0.0000	68.9794	-8.2691	0.0794	98.6794	3.5356	2.3596	0.0000	-14.8084	-0.4389	0.0593	73.8889	4.0898	15.4209	-1.5631	61.1815	-29.0165	-14.4320	76.8058	-0.4643	20.7883	-0.1205	68.1289	-26.0424	-15.9215	
7.8160	-17.5117	-0.0082	-86.5100	0.0000	1.2500	-0.0000	60.1761	2.3840	-3.7940	53.4528	-6.4335	2.5150	-0.0000	71.1625	-8.2010	0.2190	100.9280	3.5872	1.9298	0.0000	-14.7610	-0.3980	-0.0584	73.6670	4.0187	15.4394	-1.5736	61.1333	-28.9812	-14.4730	76.7479	-0.3381	20.7807	-0.0838	68.1982	-26.0797	-15.9271	
7.8330	-17.5267	0.0945	-86.0485	0.0000	1.2500	-0.0000	58.0347	2.0729	-2.9998	51.0999	-7.8158	2.9380	0.0000	73.3820	-8.0193	0.3399	102.9129	3.5321	1.3060	-0.0000	-14.7139	-0.3410	-0.1944	73.4171	3.9586	15.4522	-1.5835	61.1031	-28.9441	-14.5244	76.6849	-0.2002	20.7353	-0.0315	68.3001	-26.1104	-15.9356	
7.8500	-17.5492	0.2039	-85.6109	0.0000	1.2500	-0.0000	56.0424	1.7927	-2.3147	49.0927	-9.0039	3.1541	0.0000	75.5412	-7.7907	0.4242	104.5660	3.6586	0.7456	0.0000	-14.6716	-0.2932	-0.3284	73.1964	3.8917	15.4676	-1.5665	61.0630	-28.9105	-14.5635	76.6361	-0.0617	20.7115	0.0211	68.3725	-26.1401	-15.9370	
7.8660	-17.5857	0.3248	-85.2075	0.0000	1.2500	-0.0000	54.1997	1.5861	-1.8144	47.4333	-9.8711	2.9754	-0.0000	77.6321	-7.5193	0.4576	105.8631	4.1627	0.3315	-0.0000	-14.6358	-0.2612	-0.4580	73.0231	3.8087	15.4923	-1.5025	60.9972	-28.8843	-14.5808	76.6130	0.0817	20.7405	0.0682	68.3810	-26.1685	-15.9247	
7.8830	-17.6297	0.4526	-84.8279	0.0000	1.2500	-0.0000	52.5060	1.4236	-1.4116	46.1226	-10.5407	2.5895	-0.0000	79.6626	-7.2088	0.4541	106.8305	4.8419	-0.0109	0.0000	-14.6050	-0.2382	-0.5854	72.8790	3.7187	15.5195	-1.4116	60.9215	-28.8616	-14.5859	76.6039	0.2257	20.7909	0.1158	68.3601	-26.1958	-15.9053	
7.9000	-17.6768	0.5724	-84.5171	0.0000	1.2500	-0.0000	51.0052	1.2962	-1.1544	45.1809	-11.2378	2.4575	0.0000	81.5634	-6.9277	0.4539	107.4762	5.3880	-0.2658	0.0000	-14.5792	-0.2288	-0.6965	72.7667	3.6319	15.5363	-1.3278	60.8553	-28.8357	-14.5842	76.5931	0.3475	20.8277	0.1669	68.3508	-26.2293	-15.8893	
7.9160	-17.7250	0.6815	-84.2999	0.0000	1.2500	-0.0000	49.7025	1.2142	-1.1198	44.6152	-12.1867	2.8459	0.0000	83.3423	-6.7048	0.4699	107.7917	5.6859	-0.3878	-0.0000	-14.5604	-0.2389	-0.7848	72.6898	3.5419	15.5361	-1.2589	60.8046	-28.8019	-14.5743	76.5765	0.4307	20.8178	0.2301	68.3919	-26.2778	-15.8821	
7.9330	-17.7768	0.7823	-84.1518	0.0000	1.2500	-0.0000	48.5942	1.1761	-1.2206	44.4207	-13.1648	3.4866	0.0000	84.9937	-6.5126	0.5032	107.7865	5.8552	-0.4327	-0.0000	-14.5467	-0.2624	-0.8568	72.6447	3.4549	15.5255	-1.1972	60.7634	-28.7650	-14.5576	76.5584	0.4916	20.7944	0.2965	68.4445	-26.3325	-15.8782	
7.9500	-17.8348	0.8674	-84.0430	0.0000	1.2500	-0.0000	47.7109	1.1509	-1.2591	44.6000	-13.7265	4.0340	0.0000	86.4284	-6.3323	0.5810	107.4949	5.9437	-0.5438	-0.0000	-14.5324	-0.2866	-0.9185	72.6225	3.3996	15.5110	-1.1538	60.7342	-28.7330	-14.5443	76.5354	0.5560	20.8216	0.3424	68.4340	-26.3736	-15.8710	
7.9660	-17.9058	0.9368	-83.9641	0.0000	1.2500	-0.0000	47.0444	1.1263	-1.1534	45.1364	-13.5922	4.3693	0.0000	87.6488	-6.1554	0.7519	106.9260	5.9171	-0.8014	0.0000	-14.5116	-0.3083	-0.9715	72.6220	3.3927	15.4924	-1.1375	60.7210	-28.7091	-14.5382	76.4901	0.6452	20.9609	0.3509	68.2877	-26.3917	-15.8568	
7.9830	-17.9832	0.9903	-83.9247	0.0000	1.2500	-0.0000	46.6026	1.1098	-0.9825	46.0452	-13.0393	4.6055	-0.0000	88.6529	-5.9870	0.9735	106.0682	5.8104	-1.1264	-0.0000	-14.4901	-0.3307	-1.0142	72.6445	3.4173	15.4699	-1.1393	60.7199	-28.6900	-14.5355	76.4398	0.7378	21.1510	0.3391	68.0783	-26.3963	-15.8393	
